<svg width="512" height="512" viewBox="0 0 512 512" fill="none" xmlns="http://www.w3.org/2000/svg" xmlns:xlink="http://www.w3.org/1999/xlink" class=""><rect id="r9" width="512" height="512" x="0" y="0" rx="128" fill="url(#ra)" stroke="#FFFFFF" stroke-width="0" stroke-opacity="100%" paint-order="stroke"></rect><clipPath id="clip"><use xlink:href="#r9"></use></clipPath><defs><radialGradient id="ra" cx="50%" cy="50%" r="100%" fx="0%" fy="50%" gradientUnits="objectBoundingBox"><stop stop-color="#5edeec"></stop><stop offset="1" stop-color="#39abe0"></stop></radialGradient><radialGradient id="rb" cx="0" cy="0" r="1" gradientUnits="userSpaceOnUse" gradientTransform="translate(256) rotate(90) scale(512)"><stop stop-color="white"></stop><stop offset="1" stop-color="white" stop-opacity="0"></stop></radialGradient></defs><svg xmlns="http://www.w3.org/2000/svg" fill="none" viewBox="0 0 16 16" width="352" height="352" x="80" y="80" style="color: rgb(255, 255, 255);" alignment-baseline="middle"><path stroke="currentColor" stroke-linecap="round" stroke-linejoin="round" stroke-width="1.5" d="m11.75 9.75 2.5 2.25m0 0-2.5 2.25m2.5-2.25h-3.681a4 4 0 0 1-3.767-2.655L6.346 8.07m5.404-6.32L14.25 4m0 0-2.5 2.25M14.25 4h-3.648A4 4 0 0 0 6.82 6.696L6.346 8.07m0 0-.148-.415A4 4 0 0 0 2.431 5H1.75m4.596 3.07-.166.484a4 4 0 0 1-3.782 2.696H1.75"></path></svg></svg>